<?xml version="1.0" encoding="UTF-8"?>
<svg version="1.1" xmlns="http://www.w3.org/2000/svg" width="359" height="359">
<path d="M0 0 C1.32512494 0.57914768 1.32512494 0.57914768 2.67702007 1.16999531 C5 3 5 3 5.61523914 6.0709486 C5.61063018 7.34394471 5.60602121 8.61694082 5.60127258 9.92851257 C5.60768077 10.99203932 5.60768077 10.99203932 5.61421841 12.07705146 C5.62247185 14.45915023 5.5949278 16.83949836 5.56762695 19.22143555 C5.56621698 20.92628945 5.56700748 22.6311464 5.56983948 24.33599854 C5.57127702 28.97023529 5.54183287 33.60382803 5.50696969 38.2379148 C5.47576227 43.07856486 5.47277989 47.91922886 5.46684265 52.75996399 C5.45128766 61.92920078 5.41023684 71.09814031 5.3600952 80.26724607 C5.30425318 90.70480179 5.27672819 101.14237153 5.25161803 111.58003938 C5.19932241 133.05352564 5.11134801 154.52674412 5 176 C2.75753628 177.13424333 0.51372161 178.26566304 -1.73095703 179.39550781 C-2.67845573 179.87529587 -2.67845573 179.87529587 -3.64509583 180.36477661 C-10.55205777 183.83556932 -17.548058 186.03799302 -25 188 C-26.75763672 188.48146484 -26.75763672 188.48146484 -28.55078125 188.97265625 C-58.65752396 195.92534119 -92.38897423 190.57192122 -119 175 C-144.02490497 159.18360133 -161.67018173 136.89904286 -168.3125 107.875 C-168.57698448 106.2553734 -168.80319624 104.62923621 -169 103 C-169.13277344 101.90945312 -169.26554688 100.81890625 -169.40234375 99.6953125 C-171.610706 76.22215869 -165.79125218 51.40269203 -151.0625 32.625 C-149.72177665 31.07162807 -148.36761887 29.52974577 -147 28 C-146.33613281 27.19433594 -145.67226562 26.38867188 -144.98828125 25.55859375 C-130.76879058 8.76329886 -111.79624261 -1.63841647 -91 -8 C-90.01 -8.31710938 -89.02 -8.63421875 -88 -8.9609375 C-58.9537494 -17.295231 -26.92756641 -12.92768262 0 0 Z " fill="#AC59C6" transform="translate(352,139)"/>
<path d="M0 0 C81.84 0 163.68 0 248 0 C248 74.3 248 74.3 236.046875 88.28515625 C223.49214317 99.92546864 207.26636665 100.16036317 191.0625 99.9375 C151.57912823 99.73808903 111.48393283 110.92658138 82.3671875 138.7734375 C80 141 80 141 77.45703125 142.98828125 C56.22439465 160.37271344 44.14962603 191.49433552 41.5 218 C38.92781103 249.83189735 49.19824232 281.00416669 69.69921875 305.44921875 C88.81357175 326.64051334 110.86071518 340.90238967 138 350 C138 352.97 138 355.94 138 359 C131.84766787 359.04995648 125.69545744 359.0859794 119.54296875 359.10986328 C117.45603373 359.11983476 115.36911235 359.13341681 113.28222656 359.15087891 C91.94826278 359.32474151 72.88291522 358.85797786 56 344 C42.07100714 329.72440701 38.80585964 313.57290488 38.89320374 294.31130981 C38.8940388 292.76761083 38.8940388 292.76761083 38.89489073 291.19272602 C38.89790914 287.76924714 38.90808101 284.34582791 38.91821289 280.92236328 C38.92177183 278.45763205 38.92485705 275.9929001 38.92750549 273.52816772 C38.93404212 268.23213926 38.94350852 262.93612824 38.95540047 257.64011002 C38.97244076 249.97004449 38.98194879 242.29998277 38.9892792 234.62990247 C39.00120678 222.1661869 39.01614752 209.7024774 39.03442383 197.23876953 C39.03551395 196.49393735 39.03660407 195.74910517 39.03772723 194.98170231 C39.05333511 184.41353084 39.07193277 173.84536671 39.0917251 163.27720235 C39.09311842 162.53297655 39.09451173 161.78875075 39.09594727 161.02197266 C39.0973408 160.27866184 39.09873433 159.53535103 39.10017008 158.76951565 C39.12324644 146.35256933 39.13853507 133.93562775 39.14750665 121.51866329 C39.15334142 113.87288224 39.16566181 106.22716678 39.18647944 98.58141159 C39.2018741 92.71678202 39.20679258 86.85217272 39.20792198 80.98752213 C39.21006261 78.58983799 39.21563057 76.19215397 39.2249527 73.794487 C39.23722279 70.51047593 39.23697177 67.22668488 39.23377991 63.94265747 C39.24028771 63.00391379 39.24679551 62.06517012 39.25350052 61.09797966 C39.19161451 44.62994843 34.61993873 28.2297917 23.08984375 15.96875 C16.19435943 9.71757534 8.38433858 4.96350551 0 1 C0 0.67 0 0.34 0 0 Z " fill="#834C9E" transform="translate(111,0)"/>
<path d="M0 0 C0.77126221 -0.00029205 1.54252441 -0.00058411 2.3371582 -0.00088501 C4.87487212 0.00050326 7.41228883 0.01604063 9.94995117 0.03173828 C11.71400289 0.0354702 13.47805668 0.03831633 15.24211121 0.04031372 C19.87651327 0.04793608 24.51078923 0.06757257 29.1451416 0.08972168 C33.87758682 0.11021021 38.61005248 0.11932187 43.3425293 0.12939453 C52.62188146 0.15081979 61.90114019 0.18493886 71.18041992 0.22705078 C71.27397884 26.73117657 71.34445579 53.2352775 71.38766861 79.73953533 C71.40826891 92.04670936 71.43634113 104.35378062 71.48217773 116.66088867 C71.52212297 127.39130802 71.54787113 138.1216529 71.5567739 148.85214454 C71.56197561 154.53065545 71.57414879 160.20895339 71.60334015 165.88739586 C71.63063066 171.23979435 71.63883744 176.59189355 71.63285065 181.94435501 C71.6339448 183.90139331 71.64181692 185.85844234 71.65724182 187.81542015 C71.80080898 206.9813341 68.15094822 221.48764994 54.66870117 235.89892578 C40.67386366 248.99299667 25.15189284 249.389134 6.98901367 249.32470703 C5.43245998 249.32283867 3.87590569 249.32141675 2.3193512 249.32041931 C-1.74941675 249.316627 -5.81814819 249.30682531 -9.88690186 249.29571533 C-14.05000312 249.28543004 -18.21311036 249.28090653 -22.3762207 249.27587891 C-30.52402452 249.26519964 -38.6717959 249.24775779 -46.81958008 249.22705078 C-47.56523676 236.89336338 -47.97264381 224.61462403 -47.98071289 212.25952148 C-47.98536006 210.55856219 -47.99038713 208.85760389 -47.99575806 207.15664673 C-48.00868838 202.60105805 -48.01528654 198.04548394 -48.01976871 193.48987985 C-48.02272688 190.63176744 -48.02683607 187.77365879 -48.03127289 184.91554832 C-48.04488716 175.93691319 -48.05458729 166.95828693 -48.05847478 157.97964221 C-48.06296228 147.67899295 -48.08056789 137.37847593 -48.10947537 127.07786685 C-48.13116903 119.06540772 -48.14118289 111.05298564 -48.1425159 103.04049748 C-48.143557 98.27603882 -48.14931708 93.5117055 -48.16733551 88.74727821 C-48.18395376 84.26793688 -48.1859059 79.78881346 -48.1771965 75.30945206 C-48.17643385 73.67940494 -48.18066505 72.04934537 -48.19065475 70.41932869 C-48.31538079 48.77617668 -44.42541583 29.1722372 -29.06958008 12.91455078 C-24.18513448 8.22399158 -18.96404041 5.02084534 -12.81958008 2.22705078 C-12.10341019 1.87788605 -11.3872403 1.52872131 -10.64936829 1.16897583 C-7.06718572 -0.02339167 -3.72966325 -0.03720986 0 0 Z " fill="#A858C1" transform="translate(47.819580078125,109.77294921875)"/>
<path d="M0 0 C10.33633005 -0.16296765 20.6723491 -0.28696021 31.00970745 -0.3626852 C35.81105465 -0.39904989 40.61151601 -0.44828813 45.41235352 -0.52807617 C50.05494057 -0.60474175 54.69668154 -0.64611599 59.33985329 -0.6641407 C61.10158401 -0.67696733 62.86327407 -0.70201262 64.62463951 -0.7401104 C79.21286239 -1.04278799 88.08183154 1.74600236 99.4375 11.5 C100.97751235 12.98030267 102.50051216 14.4786617 104 16 C104.57363281 16.56332031 105.14726563 17.12664063 105.73828125 17.70703125 C116.2674874 28.88921143 119.50149866 43.81948629 119.29296875 58.66796875 C119.28872391 59.82879471 119.28447906 60.98962067 119.28010559 62.18562317 C119.26346074 65.85316251 119.22583488 69.52012984 119.1875 73.1875 C119.17243484 75.69074721 119.15874966 78.19400313 119.14648438 80.69726562 C119.11360385 86.79836861 119.06354809 92.89914342 119 99 C109.13319979 99.06974438 99.26645897 99.1229348 89.39946175 99.15543652 C84.81700002 99.17104171 80.2347079 99.1921851 75.65234375 99.22631836 C71.22380804 99.25909648 66.79543469 99.27689165 62.36678696 99.28463173 C60.68362755 99.2901423 59.00047625 99.3009025 57.31738663 99.31719017 C41.52948392 99.46379168 28.21228527 96.96594321 16.1875 85.75 C-0.53849309 67.47379291 -0.31537312 45.41158357 -0.125 22.125 C-0.11494688 19.97266043 -0.10582517 17.8203163 -0.09765625 15.66796875 C-0.07583507 10.44521137 -0.04254352 5.22262758 0 0 Z " fill="#673884" transform="translate(0,0)"/>
<path d="M0 0 C0.33 0 0.66 0 1 0 C1 7.92 1 15.84 1 24 C1.66 24 2.32 24 3 24 C2.90460938 24.98355469 2.80921875 25.96710938 2.7109375 26.98046875 C-0.09015786 60.03581914 9.2801782 91.90948102 30.69921875 117.44921875 C49.81357175 138.64051334 71.86071518 152.90238967 99 162 C99 164.97 99 167.94 99 171 C92.84766787 171.04995648 86.69545744 171.0859794 80.54296875 171.10986328 C78.45603373 171.11983476 76.36911235 171.13341681 74.28222656 171.15087891 C52.94826278 171.32474151 33.88291522 170.85797786 17 156 C2.67968092 141.32334327 -0.18054923 124.84951488 -0.11352539 105.12451172 C-0.11367142 103.9818837 -0.11381744 102.83925568 -0.1139679 101.66200256 C-0.11327606 97.91787764 -0.10551804 94.17380364 -0.09765625 90.4296875 C-0.09578948 87.82081123 -0.0943668 85.21193461 -0.09336853 82.60305786 C-0.09027366 76.45871193 -0.08208538 70.31438401 -0.07201904 64.17004597 C-0.06080031 57.16874061 -0.055333 50.16743433 -0.05032361 43.1661222 C-0.03990102 28.77740517 -0.02233766 14.38870323 0 0 Z " fill="#9544A6" transform="translate(150,188)"/>
<path d="M0 0 C0 5.94 0 11.88 0 18 C-22.11 18 -44.22 18 -67 18 C-66.67 17.34 -66.34 16.68 -66 16 C-64.0925293 15.66870117 -64.0925293 15.66870117 -61.57421875 15.54296875 C-60.17635132 15.45656128 -60.17635132 15.45656128 -58.75024414 15.3684082 C-57.73953857 15.3087085 -56.72883301 15.24900879 -55.6875 15.1875 C-37.50853253 13.83436382 -20.85411201 9.43215384 -4.75 0.79296875 C-3 0 -3 0 0 0 Z " fill="#A745C2" transform="translate(359,341)"/>
<path d="M0 0 C0 1.32 0 2.64 0 4 C-22.11 4 -44.22 4 -67 4 C-66.67 3.34 -66.34 2.68 -66 2 C-63.01455319 1.47770801 -60.13936463 1.13197953 -57.125 0.875 C-56.16005615 0.79008301 -55.1951123 0.70516602 -54.20092773 0.61767578 C-36.19684866 -0.72275225 -18.03950179 -0.15982657 0 0 Z " fill="#8E42A4" transform="translate(359,355)"/>
<path d="M0 0 C0 3.3 0 6.6 0 10 C-6.6 10 -13.2 10 -20 10 C-20 9.34 -20 8.68 -20 8 C-17.2336466 6.65722268 -14.46123789 5.32744772 -11.6875 4 C-10.90181641 3.6184375 -10.11613281 3.236875 -9.30664062 2.84375 C-8.54931641 2.4828125 -7.79199219 2.121875 -7.01171875 1.75 C-6.31522217 1.41484375 -5.61872559 1.0796875 -4.90112305 0.734375 C-3 0 -3 0 0 0 Z " fill="#BC73D7" transform="translate(359,341)"/>
<path d="M0 0 C0.33 0 0.66 0 1 0 C1 7.92 1 15.84 1 24 C1.66 24 2.32 24 3 24 C2.91621094 25.05316406 2.83242187 26.10632813 2.74609375 27.19140625 C2.03635582 36.93128177 2.07962995 46.27239657 3 56 C2.34 56 1.68 56 1 56 C1 60.62 1 65.24 1 70 C0.67 70 0.34 70 0 70 C0 46.9 0 23.8 0 0 Z " fill="#A356B1" transform="translate(150,188)"/>
<path d="M0 0 C0.33 0.66 0.66 1.32 1 2 C7.6 2 14.2 2 21 2 C21 2.66 21 3.32 21 4 C12.42 4 3.84 4 -5 4 C-5 3.34 -5 2.68 -5 2 C-3.35 1.34 -1.7 0.68 0 0 Z " fill="#B955D6" transform="translate(338,349)"/>
<path d="M0 0 C0.33 0 0.66 0 1 0 C1 7.92 1 15.84 1 24 C1.66 24 2.32 24 3 24 C2.67 28.62 2.34 33.24 2 38 C-0.13405461 33.73189078 -0.26112342 30.78172107 -0.1953125 26.171875 C-0.1924826 25.42286926 -0.18965271 24.67386353 -0.18673706 23.90216064 C-0.1755726 21.51794224 -0.15047531 19.13410421 -0.125 16.75 C-0.11496535 15.13021377 -0.10584035 13.51042164 -0.09765625 11.890625 C-0.07564555 7.92693754 -0.04114175 3.96353319 0 0 Z " fill="#BC6BC9" transform="translate(150,188)"/>
<path d="M0 0 C0 1.98 0 3.96 0 6 C-4.29 6 -8.58 6 -13 6 C-5 0 -5 0 0 0 Z " fill="#9D5FBA" transform="translate(359,341)"/>
<path d="M0 0 C0 1.32 0 2.64 0 4 C-2.97 4 -5.94 4 -9 4 C-3.7826087 0 -3.7826087 0 0 0 Z " fill="#673781" transform="translate(359,341)"/>
</svg>
